<svg width="195" height="39" viewBox="0 0 195 39" fill="none" xmlns="http://www.w3.org/2000/svg">
<path d="M10.0855 2.29102H16.6058L26.6913 32.1137H20.6048L13.0407 9.19091H13.61L6.04588 32.1137H0L10.0855 2.29102ZM5.8561 21.1336H20.8352L22.6924 26.5559H3.75495L5.84254 21.1336H5.8561Z" fill="#1BA04B"/>
<path d="M30.5417 1.66736L35.7201 0V32.1001H30.5417V1.6538V1.66736Z" fill="#1BA04B"/>
<path d="M77.5255 31.5848C76.8341 31.2324 76.2919 30.7037 75.9124 29.9852C75.5328 29.2668 75.343 28.3857 75.343 27.3419V22.1093C75.343 21.0927 75.5057 20.198 75.8446 19.4253C76.1835 18.6526 76.7122 18.029 77.4442 17.5682C78.1762 17.1073 79.1115 16.8768 80.2502 16.8768H90.4306V14.4097C90.4306 13.8674 90.2544 13.4472 89.9019 13.1219C89.5495 12.8101 89.0615 12.6474 88.4243 12.6474H76.4817V7.50977H89.9426C91.7862 7.50977 93.1824 7.98421 94.1313 8.91956C95.0802 9.85491 95.5547 11.2376 95.5547 13.0812V32.1135H90.417V30.7308C90.1053 31.1375 89.685 31.4764 89.1835 31.7339C88.6683 31.9915 88.099 32.1135 87.4754 32.1135H79.9655C79.0437 32.1135 78.2304 31.9373 77.5391 31.5848H77.5255ZM89.4681 26.8132C89.7528 26.637 89.9697 26.393 90.1324 26.0812C90.295 25.7694 90.3764 25.4034 90.3764 24.9832V21.7027H82.0938C81.6193 21.7027 81.2262 21.8382 80.928 22.1093C80.6298 22.3805 80.4807 22.7329 80.4807 23.1802V25.5525C80.4807 26.0541 80.6162 26.4472 80.8873 26.6912C81.1584 26.9487 81.5245 27.0707 82.0125 27.0707H88.4379C88.8446 27.0707 89.197 26.9894 89.4817 26.8132H89.4681Z" fill="#1BA04B"/>
<path d="M99.6487 34.1063H104.976C105.613 34.1063 106.128 33.9572 106.549 33.6725C106.955 33.3879 107.294 32.9405 107.552 32.3441L107.931 31.3003H106.508L97.9949 7.52344H103.417L110.737 28.3587H108.975L116.105 7.52344H121.473L112.147 34.1063C111.632 35.6652 110.914 36.8039 109.978 37.5495C109.043 38.2951 107.863 38.6611 106.44 38.6611H99.6351V34.0928L99.6487 34.1063Z" fill="#1BA04B"/>
<path d="M125.309 30.6633C124.374 29.7008 123.9 28.2774 123.9 26.4067V13.1899C123.9 11.4412 124.388 10.072 125.35 9.05536C126.313 8.03867 127.709 7.53711 129.512 7.53711H138.933V2.39946L144.111 0.352539V32.1273H138.933V30.4599C138.621 30.9615 138.133 31.3682 137.51 31.6664C136.873 31.9646 136.141 32.1137 135.327 32.1137H129.376C127.6 32.1137 126.245 31.6257 125.309 30.6633ZM137.835 26.7185C138.187 26.5152 138.459 26.2305 138.648 25.8916C138.838 25.5392 138.933 25.1325 138.933 24.6581V12.7154H131.464C130.61 12.7154 130 12.9187 129.634 13.339C129.268 13.7457 129.092 14.3286 129.092 15.047V24.9427C129.092 25.4172 129.173 25.8103 129.349 26.1356C129.525 26.4474 129.769 26.6779 130.081 26.827C130.393 26.9761 130.772 27.0439 131.22 27.0439H136.547C137.049 27.0439 137.483 26.9354 137.835 26.7321V26.7185Z" fill="#1BA04B"/>
<path d="M151.16 31.5848C150.469 31.2324 149.927 30.7037 149.547 29.9852C149.168 29.2668 148.978 28.3857 148.978 27.3419V22.1093C148.978 21.0927 149.14 20.198 149.479 19.4253C149.818 18.6526 150.347 18.029 151.079 17.5682C151.811 17.1073 152.746 16.8768 153.885 16.8768H164.065V14.4097C164.065 13.8674 163.889 13.4472 163.537 13.1219C163.184 12.8101 162.696 12.6474 162.059 12.6474H150.116V7.50977H163.577C165.421 7.50977 166.817 7.98421 167.766 8.91956C168.715 9.85491 169.189 11.2376 169.189 13.0812V32.1135H164.052V30.7308C163.74 31.1375 163.32 31.4764 162.818 31.7339C162.303 31.9915 161.734 32.1135 161.11 32.1135H153.6C152.679 32.1135 151.865 31.9373 151.174 31.5848H151.16ZM163.103 26.8132C163.388 26.637 163.604 26.393 163.767 26.0812C163.93 25.7694 164.011 25.4034 164.011 24.9832V21.7027H155.729C155.254 21.7027 154.861 21.8382 154.563 22.1093C154.265 22.3805 154.115 22.7329 154.115 23.1802V25.5525C154.115 26.0541 154.251 26.4472 154.522 26.6912C154.793 26.9487 155.159 27.0707 155.647 27.0707H162.073C162.479 27.0707 162.832 26.9894 163.116 26.8132H163.103Z" fill="#1BA04B"/>
<path d="M174.043 7.61833H179.18V9.28569L179.37 9.04169C179.682 8.75702 179.98 8.49946 180.251 8.28257C180.522 8.06568 180.848 7.87589 181.254 7.74033C181.648 7.60478 182.095 7.52344 182.61 7.52344H188.846C190.554 7.52344 191.882 8.01145 192.817 9.00102C193.753 9.99059 194.227 11.4004 194.227 13.2304V32.1136H188.941V15.2231C188.941 14.4369 188.737 13.8133 188.344 13.3931C187.951 12.9593 187.436 12.756 186.799 12.756H181.512C180.78 12.756 180.211 12.9729 179.804 13.4202C179.397 13.8675 179.18 14.4776 179.18 15.2773V32.1136H174.043V7.61833Z" fill="#1BA04B"/>
<path d="M72.1977 32.1137H68.5241C68.0903 32.1137 67.7107 31.8019 67.6158 31.3817L63.8067 13.5017C63.644 12.7696 62.7222 12.5121 62.2206 13.0679L59.1435 16.4161C59.0079 16.5788 58.8181 16.6737 58.6012 16.6737H53.4907C53.2874 16.6737 53.0976 16.5924 52.9756 16.4433L49.4782 12.9459C48.9631 12.4307 48.0684 12.6883 47.9193 13.4068L44.083 31.3953C43.9881 31.8155 43.6085 32.1273 43.1748 32.1273H39.5011C38.9318 32.1273 38.498 31.6257 38.5929 31.0564L43.0256 3.07725C43.0934 2.62991 43.4865 2.29102 43.9339 2.29102H48.4344C48.7462 2.29102 49.0444 2.45368 49.2206 2.7248L54.2092 10.5465C54.3854 10.8176 54.6701 10.9803 54.9954 10.9803H56.6763C56.9881 10.9803 57.2863 10.8176 57.449 10.56L62.4917 2.7248C62.668 2.45368 62.9526 2.30457 63.2644 2.30457H67.7785C68.2394 2.30457 68.619 2.62992 68.6867 3.09081L73.1059 31.0699C73.2008 31.6257 72.767 32.1408 72.1977 32.1408V32.1137Z" fill="#29FF64"/>
</svg>
