<svg width="316" height="198" viewBox="0 0 316 198" fill="none" xmlns="http://www.w3.org/2000/svg">
<g clip-path="url(#clip0_453_2100)">
<path d="M315.362 185.551L265.78 9.08561C263.979 2.86125 260.377 0.0251465 254.473 0.0251465H188.98C181.799 0.0251465 178.699 4.84401 180.75 12.4739L230.332 188.94C232.133 195.164 235.735 198 241.639 198H307.132C314.336 198 317.413 193.181 315.362 185.551ZM235.142 29.1642C238.425 29.1642 241.115 32.1007 241.115 35.7399C241.115 39.3792 238.425 42.3157 235.142 42.3157C231.859 42.3157 229.147 39.3792 229.147 35.7399C229.147 32.1007 231.837 29.1642 235.142 29.1642ZM224.337 53.886C221.031 53.886 218.341 50.9244 218.341 47.2851C218.341 43.6459 221.031 40.7094 224.337 40.7094C227.642 40.7094 230.309 43.6459 230.309 47.2851C230.309 50.9244 227.642 53.886 224.337 53.886ZM235.142 65.8578C231.837 65.8578 229.147 62.8962 229.147 59.257C229.147 55.6177 231.837 52.6812 235.142 52.6812C238.447 52.6812 241.115 55.6177 241.115 59.257C241.115 62.8962 238.425 65.8578 235.142 65.8578ZM245.742 53.886C242.437 53.886 239.747 50.9244 239.747 47.2851C239.747 43.6459 242.437 40.7094 245.742 40.7094C249.048 40.7094 251.715 43.6459 251.715 47.2851C251.715 50.9244 249.048 53.886 245.742 53.886Z" fill="#29FF64"/>
<path d="M127 0H61.5064C55.5794 0 52.0004 2.8361 50.1995 9.06046L0.617905 185.526C-1.43375 193.156 1.64373 197.975 8.84731 197.975H74.3406C80.2448 197.975 83.8466 195.139 85.6475 188.914L135.206 12.4487C137.258 4.81886 134.18 0 127 0ZM73.406 32.4018C73.406 31.4983 74.0443 30.7704 74.8649 30.7704H83.1627C83.9834 30.7704 84.6217 31.4983 84.6217 32.4018V41.6129C84.6217 42.0395 84.4849 42.4662 84.1885 42.7674L80.0852 47.1847C79.5381 47.787 78.6263 47.8121 78.0564 47.2098L73.8391 42.7674C73.5655 42.4662 73.406 42.0395 73.406 41.6129V32.4018ZM71.4227 55.0906H63.0565C62.2586 55.0906 61.5976 54.3377 61.5976 53.4592V44.2231C61.5976 43.3196 62.2586 42.5917 63.0565 42.5917H71.4227C71.833 42.5917 72.1978 42.7674 72.4713 43.0686L76.4834 47.6365C77.0533 48.2639 77.0533 49.2678 76.5062 49.8953L72.4941 54.5887C72.1978 54.8898 71.833 55.0906 71.4227 55.0906ZM84.6217 65.1299C84.6217 66.0335 83.9834 66.7613 83.1627 66.7613H74.8649C74.0443 66.7613 73.406 66.0335 73.406 65.1299V55.9189C73.406 55.4922 73.5655 55.0655 73.8391 54.7644L77.9424 50.3471C78.5123 49.7447 79.4013 49.7447 79.9712 50.3471L84.1885 54.7644C84.4621 55.0655 84.6217 55.4922 84.6217 55.9189V65.1299ZM96.2933 53.4592C96.2933 54.3377 95.6322 55.0906 94.8115 55.0906H86.4453C86.0578 55.0906 85.6703 54.8898 85.3967 54.5887L81.3846 49.8953C80.8375 49.2678 80.8375 48.2639 81.3846 47.6365L85.3967 43.0686C85.6703 42.7674 86.0578 42.5917 86.4453 42.5917H94.8115C95.6322 42.5917 96.2933 43.3196 96.2933 44.2231V53.4592Z" fill="#29FF64"/>
<path d="M145.667 13.4778H170.15C172.407 13.4778 174.413 15.0841 175.074 17.4684L196.754 94.2941C197.779 97.9585 195.295 101.648 191.83 101.648H123.418C119.931 101.648 117.446 97.9083 118.517 94.2439L140.766 17.4182C141.45 15.059 143.433 13.4778 145.667 13.4778Z" fill="#29FF64"/>
</g>
<defs>
<clipPath id="clip0_453_2100">
<rect width="316" height="198" fill="white"/>
</clipPath>
</defs>
</svg>
